<svg
  xmlns="http://www.w3.org/2000/svg"
  viewBox="0 0 1479 1479"
  fill="none"
>
  <path
    fill="#f7f2e8"
    d="M234.489,1289.72C217.441,1281.34 200.673,1273.14 183.837,1265.09C166.87,1256.98 149.866,1248.94 132.822,1240.99C116.205,1233.24 99.516,1225.64 82.859,1217.97C66.202,1210.3 49.538,1202.65 32.89,1194.96C25.753,1191.67 18.415,1188.71 11.621,1184.81C7.761,1182.6 4.161,1179.24 1.619,1175.58C-1.872,1170.55 0.519,1161.73 6.527,1158.42C14.46,1154.04 22.687,1149.67 31.33,1147.2C46.37,1142.91 61.815,1144.8 77.11,1146.94C83.306,1147.8 89.581,1148.11 95.77,1149.01C106.103,1150.52 116.473,1151.93 126.683,1154.07C136.713,1156.18 146.782,1158.51 156.44,1161.87C169.952,1166.58 183.102,1172.32 196.401,1177.63C215.848,1185.4 235.328,1193.1 254.722,1201C272.404,1208.2 289.96,1215.71 307.629,1222.95C324.158,1229.72 340.8,1236.21 357.324,1243C373.277,1249.54 389.104,1256.4 405.06,1262.94C420.02,1269.07 435.097,1274.92 450.086,1280.98C463.932,1286.58 477.714,1292.34 491.553,1297.96C510.528,1305.66 529.547,1313.26 548.516,1320.98C563.918,1327.25 579.265,1333.66 594.652,1339.96C608.757,1345.75 622.874,1351.5 637.014,1357.19C638.302,1357.71 639.857,1358.09 641.175,1357.87C642.468,1357.65 644.11,1356.84 644.672,1355.8C645.125,1354.95 644.606,1352.88 643.803,1352.21C641.785,1350.54 639.493,1349.03 637.077,1348.02C624.864,1342.91 612.579,1337.96 600.313,1332.97C583.911,1326.3 567.505,1319.63 551.099,1312.97C539.115,1308.1 527.142,1303.21 515.142,1298.38C494,1289.87 472.804,1281.5 451.701,1272.89C430.599,1264.29 409.618,1255.39 388.518,1246.78C367.988,1238.41 347.341,1230.32 326.809,1221.94C309.129,1214.73 291.576,1207.22 273.903,1199.99C251.669,1190.9 229.368,1181.97 207.098,1172.97C196.391,1168.64 185.647,1164.4 175.014,1159.9C172.608,1158.88 171.186,1157.23 174.103,1154.48C182.579,1146.5 193.07,1143.24 204.046,1141.01C206.859,1140.43 209.755,1140.1 212.625,1140C232.909,1139.33 252.296,1143.77 271.263,1150.5C278.527,1153.07 285.734,1155.83 293.075,1158.17C294.951,1158.76 297.747,1158.84 299.249,1157.84C305.572,1153.63 312.089,1153.23 319.287,1154.88C326.81,1156.61 334.566,1157.33 342.082,1159.08C346.538,1160.12 350.847,1162.05 355.018,1164.01C376.085,1173.92 397.094,1183.95 418.104,1193.98C423.813,1196.7 429.447,1199.59 435.146,1202.34C435.968,1202.73 436.966,1202.95 437.881,1202.94C448.239,1202.9 458.575,1202.72 468.683,1205.82C470.292,1206.31 472.915,1205.36 474.371,1204.19C486.883,1194.2 500.852,1188.03 516.829,1185.8C525.251,1184.63 532.871,1181.65 539.371,1174.8C548.614,1165.06 560.753,1158.39 573.988,1156.39C582.438,1155.11 591.703,1152.37 600.32,1156.62C606.979,1159.91 613.456,1163.57 619.942,1167.2C631.047,1173.4 642.083,1179.73 653.171,1185.96C667.227,1193.87 681.295,1201.75 695.393,1209.58C696.857,1210.39 698.549,1211.23 700.145,1211.25C701.747,1211.27 703.789,1210.68 704.81,1209.59C705.407,1208.94 704.891,1206.03 704.01,1205.45C698.301,1201.67 692.435,1198.11 686.471,1194.74C668.378,1184.53 650.244,1174.4 632.068,1164.34C624.356,1160.07 616.525,1156.01 608.698,1151.96C603.644,1149.34 601.707,1144.94 601.245,1139.62C600.881,1135.42 600.497,1131.23 600.254,1127.03C599.609,1115.87 600.212,1104.93 605.146,1094.56C606.124,1092.5 606.581,1089.74 606.127,1087.54C603.562,1075.11 607.928,1065.09 615.708,1055.7C617.902,1053.05 618.522,1048.84 619.164,1045.22C621.134,1034.1 627.88,1026.38 637.17,1021.17C642.287,1018.31 645.021,1015.24 646.562,1009.44C649.259,999.298 656.835,992.671 666.034,987.982C672.496,984.689 672.219,984.826 670.309,977.94C667.315,967.147 669.483,957.178 676.411,948.358C677.927,946.428 680.181,945.037 681.503,943.012C682.281,941.821 682.619,939.349 681.903,938.351C678.903,934.169 675.689,930.073 672.084,926.406C658.648,912.74 645.455,898.788 631.362,885.823C614.412,870.23 596.906,855.208 579.14,840.545C562.883,827.129 546.188,814.214 529.24,801.679C519.582,794.535 509.026,788.606 498.886,782.112C480.311,770.217 461.818,758.195 443.155,746.44C426.264,735.801 409.13,725.547 392.215,714.944C371.689,702.078 351.38,688.864 330.786,676.108C317.174,667.677 303.297,659.664 289.411,651.684C263.984,637.071 237.364,624.622 212.863,608.289C190.64,593.474 167.789,579.599 145.154,565.406C114.999,546.497 84.743,527.748 54.616,508.794C42.287,501.037 29.866,493.357 18.113,484.785C12.268,480.522 7.214,474.774 2.929,468.879C-2.087,461.979 2.496,453.748 11.895,452.019C25.3,449.554 37.822,450.805 49.823,458.696C59.575,465.109 70.744,469.322 80.997,475.028C106.209,489.06 131.256,503.389 156.369,517.6C168.656,524.552 181.049,531.324 193.201,538.505C207.823,547.146 222.287,556.059 236.732,564.994C254.921,576.245 272.863,587.905 291.219,598.873C302.9,605.852 314.801,612.656 327.206,618.185C346.985,627 363.588,640.374 380.788,652.99C399.05,666.384 417.468,679.565 435.703,692.994C451.696,704.773 467.51,716.794 483.441,728.657C497.952,739.463 512.503,750.215 527.055,760.965C541.854,771.899 556.66,782.822 571.491,793.711C587.076,805.154 602.693,816.554 618.3,827.967C619.958,829.179 621.788,830.198 623.284,831.581C625.917,834.014 628.393,833.846 630.449,831.173C632.642,828.324 630.284,826.278 628.396,824.736C624.597,821.631 620.509,818.881 616.553,815.968C600.332,804.025 584.146,792.034 567.89,780.14C550.892,767.703 533.773,755.43 516.808,742.948C500.944,731.276 485.218,719.417 469.42,707.654C454.774,696.75 440.141,685.828 425.454,674.979C409.512,663.204 393.517,651.501 377.538,639.777C375.758,638.471 373.928,637.232 372.116,635.97C369.353,634.047 369.299,631.59 372.129,629.988C379.189,625.993 386.68,624.535 394.597,626.857C403.503,629.469 412.628,631.611 421.14,635.19C427.108,637.699 432.355,642.071 437.668,645.961C458.151,660.957 478.474,676.171 498.965,691.155C516.847,704.231 534.957,716.994 552.816,730.099C571.255,743.631 589.48,757.453 607.866,771.056C614.592,776.032 621.526,780.724 628.337,785.585C630.797,787.34 633.4,787.156 634.671,784.719C635.294,783.525 634.278,780.472 633.031,779.468C624.846,772.882 616.452,766.55 608.019,760.279C594.147,749.963 580.196,739.753 566.273,729.505C546.094,714.652 525.941,699.762 505.717,684.972C490.129,673.571 474.452,662.292 458.804,650.973C454.065,647.546 449.254,644.217 444.565,640.723C443.587,639.993 442.178,638.417 442.419,637.784C442.86,636.628 444.241,635.45 445.481,635.039C454.705,631.981 462.863,635.127 470.594,639.868C477.526,644.117 484.383,648.497 491.142,653.015C494.002,654.926 495.728,653.52 497.196,651.459C502.026,644.68 509.365,644.015 515.388,649.557C529.712,662.737 544.177,675.763 558.606,688.829C568.78,698.041 578.965,707.241 589.185,716.403C601.572,727.507 613.91,738.671 626.537,749.497C627.993,750.745 631.16,749.998 633.533,750.175C633.179,748.017 633.584,745.138 632.338,743.826C627.133,738.343 621.509,733.246 615.888,728.173C611.938,724.607 607.624,721.444 603.686,717.864C594.575,709.582 585.638,701.109 576.55,692.801C561.937,679.443 547.288,666.124 532.591,652.859C528.27,648.959 523.557,645.479 519.381,641.437C517.684,639.795 516.214,637.273 515.882,634.973C514.195,623.266 513.877,612.084 528.6,605.845C531.215,604.737 532.74,604.736 534.514,606.729C545.576,619.154 556.64,631.578 567.748,643.962C574.302,651.269 580.942,658.499 587.537,665.769C600.503,680.063 613.49,694.339 626.419,708.666C634.834,717.991 643.13,727.422 651.543,736.748C655.946,741.628 660.508,746.363 664.953,751.205C666.743,753.154 668.952,754.296 670.635,751.809C671.543,750.466 671.609,747.506 670.714,746.185C667.924,742.071 664.63,738.267 661.286,734.565C650.749,722.896 640.069,711.356 629.502,699.714C620.501,689.798 611.574,679.815 602.625,669.852C590.952,656.857 579.276,643.864 567.626,630.849C556.53,618.454 545.365,606.119 534.431,593.582C528.859,587.193 527.412,578.975 526.419,570.973C525.789,565.897 526.833,560.598 527.295,555.415C527.399,554.249 528.024,553.011 528.726,552.035C533.562,545.307 536.124,545.285 541.536,551.763C553.433,566.004 565.359,580.22 577.237,594.477C590.341,610.205 603.414,625.96 616.483,641.718C627.693,655.235 638.912,668.744 650.063,682.311C662.008,696.845 673.834,711.477 685.809,725.987C689.036,729.896 692.437,733.705 696.14,737.148C697.275,738.203 699.683,737.888 701.508,738.201C701.752,736.244 702.877,733.756 702.076,732.431C699.539,728.231 696.414,724.358 693.28,720.553C680.372,704.877 667.425,689.234 654.399,673.656C643.511,660.636 632.398,647.803 621.559,634.743C609.545,620.266 597.771,605.59 585.81,591.069C578.827,582.592 571.637,574.287 564.624,565.834C553.623,552.575 543.021,538.969 531.655,526.032C515.48,507.621 502.704,486.873 489.202,466.591C474.657,444.742 459.825,423.085 445.115,401.346C430.492,379.736 415.866,358.128 401.239,336.521C385.907,313.872 370.56,291.233 355.243,268.574C339.225,244.88 323.286,221.133 307.217,197.475C294.925,179.378 282.331,161.485 270.176,143.298C264.031,134.104 258.245,124.635 252.886,114.963C248.404,106.876 247.428,97.935 249.261,88.821C250.461,82.85 255.605,80.759 262.317,82.448C275.116,85.669 283.704,94.033 291.144,104.29C299.177,115.363 307.62,126.138 315.837,137.079C325.664,150.165 335.335,163.369 345.269,176.373C354.776,188.818 364.59,201.026 374.162,213.421C383.899,226.028 393.552,238.7 403.154,251.41C411.004,261.8 418.371,272.576 426.585,282.666C439.073,298.006 449.41,314.75 460.223,331.232C472.248,349.559 485.453,367.106 497.882,385.174C513.474,407.84 528.506,430.896 544.328,453.398C557.919,472.725 572.256,491.53 586.314,510.528C595.575,523.041 605.141,535.334 614.191,547.998C628.865,568.531 642.932,589.504 657.841,609.862C665.642,620.515 674.649,630.29 683.185,640.398C698,657.942 713.319,675.083 727.596,693.053C741.611,710.693 754.614,729.139 768.002,747.275C769.948,749.911 771.572,752.785 773.327,755.561C778.462,763.681 785.007,769.654 794.476,772.923C809.459,778.094 823.989,784.566 838.906,789.945C844.022,791.79 849.754,791.872 855.154,792.998C865.875,795.234 876.77,796.946 887.212,800.127C903.877,805.204 920.636,810.362 936.608,817.223C954.026,824.705 970.63,834.095 987.523,842.78C1008.41,853.519 1027.32,867.33 1045.98,881.414C1056.05,889.016 1065.34,897.679 1074.78,906.087C1081.43,912.007 1088.01,918.045 1094.15,924.48C1112.1,943.296 1128.38,963.534 1142.11,985.612C1151.81,1001.22 1159.72,1017.86 1165.94,1035.21C1166.88,1037.83 1167.78,1040.53 1168.19,1043.27C1169.79,1053.95 1178.21,1058.38 1186.51,1061.79C1207.85,1070.55 1230.51,1070.79 1253.12,1069.88C1264.56,1069.41 1275.97,1067.09 1287.38,1067.19C1301.72,1067.33 1315.78,1070.05 1328.76,1076.92C1338.71,1082.2 1349.24,1086.5 1358.85,1092.32C1371.75,1100.12 1382.24,1110.99 1390.77,1123.27C1399.38,1135.67 1406.94,1148.82 1414.51,1161.91C1417.4,1166.93 1419.44,1172.56 1421.1,1178.14C1422.32,1182.23 1424.66,1184.49 1428.52,1184.91C1440.96,1186.27 1450.9,1192.83 1460.03,1200.49C1467.04,1206.39 1473.62,1213 1477.46,1221.68C1479.76,1226.89 1479.34,1231.25 1475.65,1233.9C1473.98,1235.1 1471.6,1235.88 1469.54,1235.86C1463.45,1235.83 1457.36,1234.9 1451.28,1235.04C1430.91,1235.53 1411.35,1239.18 1393.22,1249.34C1378.26,1257.71 1362.83,1265.26 1347.58,1273.11C1335.74,1279.21 1323.06,1282.65 1310,1285.01C1298.1,1287.15 1286.31,1289.89 1274.38,1291.89C1264.17,1293.6 1253.87,1295.13 1243.55,1295.84C1231.05,1296.71 1218.48,1297.17 1205.97,1296.83C1192.2,1296.45 1178.45,1295.09 1164.72,1293.93C1155.28,1293.14 1145.83,1292.29 1136.47,1290.88C1125.89,1289.3 1115.42,1286.96 1104.88,1285.15C1097.68,1283.91 1090.41,1283.05 1083.19,1281.96C1074.57,1280.66 1065.91,1279.56 1057.35,1277.91C1044.75,1275.48 1032.21,1272.67 1019.66,1269.96C1002.84,1266.33 986.097,1262.26 969.178,1259.17C962.939,1258.03 956.533,1257.87 951.346,1253.89C948.009,1251.33 944.552,1248.45 942.375,1244.95C936.503,1235.51 942.473,1228.69 951.358,1225.06C959.627,1221.68 968.119,1218.78 976.657,1216.14C986.38,1213.13 992.784,1205.8 998.753,1198.58C1005.34,1190.61 1007.46,1180.33 1008.18,1170.09C1009.2,1155.51 1003,1143.13 994.029,1132.55C982.05,1118.4 969.349,1104.81 956.246,1091.7C943.615,1079.05 930.477,1066.84 916.833,1055.3C901.966,1042.72 890.896,1027.1 879.202,1011.9C877.203,1009.3 874.862,1006.91 872.374,1004.78C871.532,1004.06 869.32,1003.86 868.509,1004.47C867.619,1005.13 867.041,1007.17 867.371,1008.3C867.917,1010.18 869.03,1012.06 870.368,1013.52C883.144,1027.43 895.693,1041.57 908.955,1055C922.046,1068.26 935.535,1081.18 949.491,1093.53C966.018,1108.14 980.73,1124.28 993.061,1142.49C998.112,1149.95 1001.57,1158.15 1002.43,1167.64C1004.18,1186.72 991.645,1206.58 972.657,1213.07C964.195,1215.96 955.802,1219.06 947.339,1221.95C939.49,1224.63 935.885,1231.1 933.319,1238.13C929.67,1248.13 927.446,1258.74 922.996,1268.34C918.439,1278.18 912.344,1287.39 906.181,1296.36C897.215,1309.42 887.733,1322.13 878.194,1334.78C870.202,1345.38 861.922,1355.77 853.573,1366.09C842.843,1379.35 832.834,1393.37 820.86,1405.42C802.715,1423.68 780.238,1435.7 755.832,1443.63C747.954,1446.19 739.347,1446.45 731.117,1448C712.811,1451.42 694.329,1452.8 675.776,1451.86C660.467,1451.08 645.155,1449.74 629.94,1447.87C604.75,1444.77 580.327,1438.16 556.191,1430.44C539.85,1425.21 523.318,1420.54 507.137,1414.86C487.519,1407.98 468.001,1400.73 448.776,1392.82C432.545,1386.14 416.741,1378.41 400.844,1370.93C387.722,1364.77 374.711,1358.36 361.705,1351.96C324.19,1333.48 286.712,1314.93 249.193,1296.46C244.457,1294.13 239.561,1292.12 234.489,1289.72M1339.24,1195.47C1342.41,1194.3 1345.76,1193.48 1348.71,1191.9C1356.22,1187.87 1355.48,1183.3 1350.56,1180.02C1344.89,1176.24 1338.21,1174.48 1331.29,1175.05C1327.56,1175.36 1322.15,1182.29 1322.29,1186.25C1322.46,1191.24 1325.55,1193.98 1330.2,1194.92C1333,1195.5 1335.89,1195.64 1339.24,1195.47Z" />
        <path fill="#f7f2e8" d="M1124.49,54.719C1125.57,63.291 1126.68,71.595 1127.18,79.937C1128.06,94.814 1128.17,109.745 1129.34,124.595C1130.89,144.302 1138.03,162.313 1147.31,179.622C1155.34,194.597 1162.87,209.842 1170.71,224.918C1176.28,235.62 1182.55,245.994 1187.55,256.951C1196.17,275.86 1203.98,295.141 1212.27,314.204C1217.12,325.362 1222.38,336.344 1227.23,347.504C1236.32,368.403 1245.41,389.306 1254.19,410.334C1262.62,430.508 1271.29,450.617 1278.72,471.164C1288.28,497.582 1299.17,523.576 1305.41,551.145C1306.75,557.035 1310.3,562.419 1312.81,568.047C1322.99,590.88 1332.4,614.039 1339.11,638.133C1343.46,653.757 1346.59,669.721 1350.23,685.541C1353.94,701.639 1355.72,717.907 1355.34,734.469C1355.12,743.818 1356.56,753.22 1356.12,762.546C1354.84,789.746 1350.93,816.53 1338.13,841.038C1330.2,856.222 1318.67,868.633 1305.36,879.404C1300.19,883.587 1295.12,887.926 1290.28,892.486C1267.9,913.573 1242.81,931.064 1217.27,948.006C1209.64,953.068 1201.63,957.844 1194.99,964.036C1184.1,974.19 1177.32,986.926 1176.25,1002.17C1175.84,1008.08 1175.65,1014.01 1175.16,1019.92C1175.08,1020.98 1174.02,1021.95 1173.41,1022.97C1172.68,1022.23 1171.57,1021.62 1171.3,1020.74C1164.55,998.865 1152.47,979.84 1139.18,961.569C1131.55,951.074 1123.19,941.089 1114.82,931.157C1108.39,923.529 1102,915.726 1094.61,909.086C1079.58,895.574 1064.47,882.035 1048.33,869.917C1030.51,856.534 1012,843.884 992.85,832.507C977.526,823.403 961.027,816.123 944.605,809.071C929.616,802.635 914.215,797.002 898.65,792.116C885.299,787.925 871.461,785.284 857.834,781.979C856.156,781.573 854.453,781.066 852.749,781.012C846.694,780.818 845.763,780.17 848.38,775.089C852.93,766.257 857.693,757.385 863.585,749.432C870.045,740.712 880.429,737.17 890.534,735.319C897.277,734.083 900.212,730.75 903.406,725.528C910.676,713.64 919.552,702.854 931.549,695.476C935.869,692.819 941.493,691.845 946.664,691.128C951.784,690.418 955.963,689.513 959.76,685.213C971.038,672.44 985.714,665.585 1002.45,662.96C1008.18,662.062 1013.31,661.195 1017.48,655.621C1025.47,644.937 1037.78,641.145 1050.44,639.046C1057.09,637.944 1063.86,637.437 1070.6,637.049C1074.29,636.836 1077.11,638.104 1079.67,641.654C1096.48,664.944 1113.67,687.961 1130.88,710.957C1131.98,712.431 1134.28,713.731 1136.08,713.793C1138.7,713.886 1141.6,712.834 1139.22,709.102C1136.27,704.473 1133.33,699.823 1130.1,695.382C1117.54,678.065 1104.86,660.838 1092.25,643.553C1088.52,638.448 1083.29,633.757 1081.54,628.024C1076.45,611.312 1075.14,594.409 1087.92,579.896C1093.08,574.032 1090.35,568.093 1088.9,562.206C1085.92,550.126 1084.41,537.803 1087.55,525.814C1089.3,519.135 1093.26,512.461 1097.88,507.248C1104.23,500.085 1103.19,493.527 1100.5,485.509C1096.29,472.922 1093.74,459.895 1093.16,446.509C1092.75,437.167 1096.38,429.201 1101.14,421.815C1104.46,416.66 1105.24,412.217 1103.27,406.305C1098.52,392.069 1094.4,377.619 1090.29,363.178C1087.82,354.498 1085.99,345.638 1083.65,336.919C1080.58,325.49 1082.66,315.06 1089.34,305.465C1089.88,304.685 1091.28,303.991 1092.16,304.109C1092.94,304.213 1093.81,305.403 1094.2,306.304C1100.59,321.157 1106.92,336.034 1113.24,350.917C1121.96,371.47 1130.57,392.071 1139.39,412.58C1146.21,428.425 1153.39,444.112 1160.21,459.955C1169.04,480.463 1177.56,501.102 1186.42,521.597C1193.2,537.291 1200.47,552.773 1207.19,568.49C1216.7,590.715 1225.81,613.112 1235.28,635.355C1240.94,648.675 1247,661.829 1252.84,675.08C1257.68,686.074 1262.44,697.103 1267.25,708.108C1267.68,709.097 1268.01,710.404 1268.8,710.907C1270.49,711.974 1272.44,712.607 1274.29,713.419C1274.88,711.045 1276.62,708.207 1275.88,706.374C1271.43,695.388 1266.28,684.687 1261.6,673.79C1255.04,658.51 1248.76,643.109 1242.21,627.824C1237.48,616.783 1232.41,605.887 1227.66,594.854C1220.77,578.875 1214.1,562.803 1207.22,546.823C1202.46,535.79 1197.4,524.891 1192.66,513.854C1186.1,498.575 1179.77,483.193 1173.22,467.909C1168.48,456.869 1163.47,445.949 1158.71,434.918C1151.83,418.94 1145.07,402.904 1138.24,386.903C1133.88,376.706 1129.48,366.532 1125.11,356.339C1118.15,340.059 1111.27,323.737 1104.21,307.498C1098.69,294.785 1092.96,282.161 1087.28,269.515C1081.96,257.69 1078.41,245.391 1076.13,232.608C1074.23,222.023 1071.23,211.64 1068.94,201.121C1067.5,194.508 1066.37,187.823 1065.26,181.144C1061.1,156.185 1061.09,131.014 1061.15,105.806C1061.2,84.614 1067.07,65.431 1079.48,48.394C1084.05,42.126 1088.99,35.729 1095.04,31.038C1105.13,23.216 1114.29,26.383 1119.47,37.897C1121.81,43.086 1122.69,48.925 1124.49,54.719Z"
  />
</svg>

